<?xml version="1.0" encoding="UTF-8" standalone="no"?>
<!-- Created with Inkscape (http://www.inkscape.org/) -->

<svg
   xmlns:dc="http://purl.org/dc/elements/1.1/"
   xmlns:cc="http://creativecommons.org/ns#"
   xmlns:rdf="http://www.w3.org/1999/02/22-rdf-syntax-ns#"
   xmlns:svg="http://www.w3.org/2000/svg"
   xmlns="http://www.w3.org/2000/svg"
   xmlns:sodipodi="http://sodipodi.sourceforge.net/DTD/sodipodi-0.dtd"
   xmlns:inkscape="http://www.inkscape.org/namespaces/inkscape"
   width="33.996754mm"
   height="27.989061mm"
   viewBox="0 0 120.46094 99.173844"
   id="svg2"
   version="1.1"
   inkscape:version="0.91 r13725"
   sodipodi:docname="alien3.svg">
  <defs
     id="defs4" />
  <sodipodi:namedview
     id="base"
     pagecolor="#ffffff"
     bordercolor="#666666"
     borderopacity="1.0"
     inkscape:pageopacity="0.0"
     inkscape:pageshadow="2"
     inkscape:zoom="5.6"
     inkscape:cx="14.787056"
     inkscape:cy="37.48839"
     inkscape:document-units="px"
     inkscape:current-layer="layer1"
     showgrid="false"
     inkscape:window-width="1855"
     inkscape:window-height="1056"
     inkscape:window-x="65"
     inkscape:window-y="24"
     inkscape:window-maximized="1"
     fit-margin-top="0"
     fit-margin-left="0"
     fit-margin-right="0"
     fit-margin-bottom="0" />
  <metadata
     id="metadata7">
    <rdf:RDF>
      <cc:Work
         rdf:about="">
        <dc:format>image/svg+xml</dc:format>
        <dc:type
           rdf:resource="http://purl.org/dc/dcmitype/StillImage" />
        <dc:title></dc:title>
      </cc:Work>
    </rdf:RDF>
  </metadata>
  <g
     inkscape:label="Calque 1"
     inkscape:groupmode="layer"
     id="layer1"
     transform="translate(-128.91211,-362.19626)">
    <path
       style="fill:#000000;fill-opacity:1;fill-rule:nonzero;stroke:none;stroke-width:1;stroke-miterlimit:4;stroke-dasharray:none;stroke-opacity:1"
       d="m 59.898438,0 c -3.939028,0.00938621 -7.125059,3.2094062 -7.117188,7.1484375 0.0064,2.3074794 1.128469,4.4693665 3.011719,5.8027345 l 0,5.544922 C 33.632481,19.130844 14.578677,29.540104 0.28710938,46.488281 7.8271184,55.690081 17.375539,63.041636 28.199219,67.978516 20.009759,73.699204 14.990359,80.966501 12.117188,90.113281 11.61056,89.990918 11.105581,89.904297 10.527344,89.904297 l -0.9042971,0 c -3.0925917,0 -5.5820313,2.026053 -5.5820313,4.542969 0,2.516926 2.4894396,4.542968 5.5820313,4.542968 l 0.9042971,0 c 2.497175,0.07411 4.587552,0.157553 7.08789,0.13868 2.519533,-0.01763 0,0 2.519533,-0.01763 2.116028,-0.01472 3.807689,-1.729674 3.792968,-3.845703 -0.01025,-1.473581 -0.853511,-2.72645 -2.074218,-3.355469 3.341203,-8.387437 9.955728,-15.15351 18.351562,-20.097656 7.850242,2.647574 12.056567,3.317011 20.382813,3.353516 8.368898,-0.0233 12.394153,0.03206 20.326171,-2.636719 8.294463,4.853592 15.660811,10.758047 19.396487,18.789062 -1.701256,0.396497 -2.958,1.91675 -2.945315,3.740235 0.01472,2.116029 1.751996,3.919297 3.868025,3.904575 1.37612,0.03289 0,0 1.37612,0.03289 4.42571,-0.08702 4.41084,-0.09943 8.41605,-0.150391 2.86154,-0.08577 5.14258,-2.1209 5.14258,-4.652344 0,-2.586299 -2.43947,-4.012833 -5.38735,-3.941921 l -0.65615,0.01578 c -0.35663,0.0086 -0.421,0.01248 -0.421,0.01248 C 106.31651,80.90236 101.14178,73.654477 93.019572,67.998017 103.4796,63.226436 112.75307,56.197454 120.17383,47.416016 106.05198,30.127958 86.261146,19.733034 63.955078,18.871094 l 0,-5.865235 C 65.892606,11.67443 67.049833,9.4739439 67.048828,7.1230469 67.042672,3.1832572 63.844088,-0.00570885 59.904297,0 Z m -0.841797,33.400391 c 7.673208,-3.3e-4 13.894871,6.219358 13.894531,13.892578 -3.37e-4,4.69817 -2.339889,8.8431 -5.910156,11.357422 0.410534,-1.822962 0.605438,-3.827849 0.603515,-5.679688 -0.007,-6.994838 -3.91065,-12.656224 -8.71875,-12.646484 l -0.0059,0 -0.002,0 c -4.807245,0.01594 -8.697399,5.69745 -8.6875,12.691406 0.0021,1.793178 0.153482,3.668166 0.505859,5.382813 -3.376795,-2.534415 -5.571934,-6.558371 -5.572266,-11.105469 -3.37e-4,-7.67322 6.219359,-13.892908 13.892579,-13.892578 z m -33.876953,3.072265 c 5.788238,-8.1e-5 10.480548,4.692229 10.480468,10.480469 -10e-4,5.78747 -4.693001,10.478596 -10.480468,10.478516 -5.787471,8e-5 -10.479459,-4.691046 -10.480469,-10.478516 -8e-5,-5.78824 4.692228,-10.480549 10.480469,-10.480469 z m 67.048828,0 c 5.788238,-8.1e-5 10.480544,4.692229 10.480464,10.480469 -10e-4,5.78747 -4.692996,10.478596 -10.480464,10.478516 -5.78747,7e-5 -10.479459,-4.691046 -10.480469,-10.478516 -8e-5,-5.78823 4.692239,-10.480539 10.480469,-10.480469 z M 53.675781,47.984375 c 0.44914,0.002 0.954953,0.108331 1.457031,0.306641 l 0.002,0 c 1.44899,0.57308 2.506701,1.752432 2.363281,2.632812 -0.14305,0.88012 -1.432481,1.129441 -2.880859,0.556641 -1.44745,-0.57261 -2.504592,-1.75063 -2.363282,-2.63086 0.0873,-0.54314 0.622895,-0.868834 1.421875,-0.865234 z m 10.775391,0 c 0.79896,-0.003 1.334545,0.322094 1.421875,0.865234 0.14129,0.88023 -0.915841,2.05825 -2.363281,2.63086 -1.44838,0.5728 -2.739743,0.323479 -2.882813,-0.556641 -0.14129,-0.88023 0.917805,-2.058259 2.365235,-2.630859 l 0.002,-0.002 c 0.50207,-0.19834 1.007881,-0.304501 1.457031,-0.306641 z"
       transform="translate(128.91211,362.19626)"
       id="path4138"
       inkscape:connector-curvature="0"
       sodipodi:nodetypes="cccccccsssscccscccccscccssscccccccccccccccccccccccccccccccccccccccccccccc" />
  </g>
</svg>
